<?xml version="1.0" encoding="UTF-8" standalone="no"?><svg xmlns="http://www.w3.org/2000/svg" xmlns:xlink="http://www.w3.org/1999/xlink" fill="#000000" height="760.3" preserveAspectRatio="xMidYMid meet" version="1" viewBox="362.8 619.9 1274.4 760.3" width="1274.4" zoomAndPan="magnify"><g fill="#ffffff" id="change1_1"><path d="M 1286.820312 1277.988281 L 953.292969 1277.988281 C 941.105469 1277.988281 931.246094 1268.128906 931.246094 1255.941406 C 931.246094 1243.761719 941.105469 1233.890625 953.292969 1233.890625 L 1286.820312 1233.890625 C 1299.011719 1233.890625 1308.871094 1243.761719 1308.871094 1255.941406 C 1308.871094 1268.128906 1299.011719 1277.988281 1286.820312 1277.988281" fill="inherit"/><path d="M 1615.15625 1277.992188 L 1528.546875 1277.992188 C 1516.363281 1277.992188 1506.5 1268.132812 1506.5 1255.941406 C 1506.5 1243.761719 1516.363281 1233.894531 1528.546875 1233.894531 L 1593.101562 1233.894531 L 1593.101562 1112.253906 C 1593.101562 951.816406 1479.199219 812.191406 1322.269531 780.230469 C 1300.03125 775.710938 1277.179688 773.433594 1254.257812 773.433594 L 1223.464844 773.433594 C 1211.28125 773.433594 1201.417969 763.570312 1201.417969 751.386719 C 1201.417969 739.191406 1211.28125 729.328125 1223.464844 729.328125 L 1254.257812 729.328125 C 1280.09375 729.328125 1305.9375 731.917969 1331.046875 737.042969 C 1508.4375 773.152344 1637.203125 930.945312 1637.203125 1112.253906 L 1637.203125 1255.941406 C 1637.203125 1268.132812 1627.339844 1277.992188 1615.15625 1277.992188" fill="inherit"/><path d="M 725.773438 1277.988281 L 622.371094 1277.988281 C 610.183594 1277.988281 600.320312 1268.128906 600.320312 1255.941406 C 600.320312 1243.761719 610.183594 1233.890625 622.371094 1233.890625 L 725.773438 1233.890625 C 737.960938 1233.890625 747.824219 1243.761719 747.824219 1255.941406 C 747.824219 1268.128906 737.960938 1277.988281 725.773438 1277.988281" fill="inherit"/><path d="M 1606.289062 1056.089844 L 1330.75 1056.089844 C 1318.558594 1056.089844 1308.699219 1046.230469 1308.699219 1034.039062 L 1308.699219 758.628906 C 1308.699219 746.449219 1318.558594 736.578125 1330.75 736.578125 C 1342.941406 736.578125 1352.800781 746.449219 1352.800781 758.628906 L 1352.800781 1011.988281 L 1606.289062 1011.988281 C 1618.480469 1011.988281 1628.339844 1021.859375 1628.339844 1034.039062 C 1628.339844 1046.230469 1618.480469 1056.089844 1606.289062 1056.089844" fill="inherit"/><path d="M 1405.730469 1175.878906 C 1361.589844 1175.878906 1325.671875 1211.800781 1325.671875 1255.941406 C 1325.671875 1300.109375 1361.589844 1336.03125 1405.730469 1336.03125 C 1449.871094 1336.03125 1485.789062 1300.109375 1485.789062 1255.941406 C 1485.789062 1211.800781 1449.871094 1175.878906 1405.730469 1175.878906 Z M 1405.730469 1380.128906 C 1337.25 1380.128906 1281.570312 1324.421875 1281.570312 1255.941406 C 1281.570312 1187.488281 1337.25 1131.78125 1405.730469 1131.78125 C 1474.199219 1131.78125 1529.890625 1187.488281 1529.890625 1255.941406 C 1529.890625 1324.421875 1474.199219 1380.128906 1405.730469 1380.128906" fill="inherit"/><path d="M 839.535156 1175.878906 C 795.390625 1175.878906 759.472656 1211.800781 759.472656 1255.941406 C 759.472656 1300.109375 795.390625 1336.03125 839.535156 1336.03125 C 883.699219 1336.03125 919.617188 1300.109375 919.617188 1255.941406 C 919.617188 1211.800781 883.699219 1175.878906 839.535156 1175.878906 Z M 839.535156 1380.128906 C 771.082031 1380.128906 715.375 1324.421875 715.375 1255.941406 C 715.375 1187.488281 771.082031 1131.78125 839.535156 1131.78125 C 908.011719 1131.78125 963.71875 1187.488281 963.71875 1255.941406 C 963.71875 1324.421875 908.011719 1380.128906 839.535156 1380.128906" fill="inherit"/><path d="M 1209.910156 1121.601562 L 622.371094 1121.601562 C 610.183594 1121.601562 600.320312 1111.738281 600.320312 1099.550781 C 600.320312 1087.359375 610.183594 1077.5 622.371094 1077.5 L 1187.859375 1077.5 L 1187.859375 751.378906 C 1187.859375 739.191406 1197.71875 729.328125 1209.910156 729.328125 C 1222.089844 729.328125 1231.960938 739.191406 1231.960938 751.378906 L 1231.960938 1099.550781 C 1231.960938 1111.738281 1222.089844 1121.601562 1209.910156 1121.601562" fill="inherit"/><path d="M 1209.910156 785.808594 C 1197.71875 785.808594 1187.859375 775.949219 1187.859375 763.761719 L 1187.859375 663.96875 L 521.53125 663.96875 C 509.34375 663.96875 499.480469 654.109375 499.480469 641.921875 C 499.480469 629.738281 509.34375 619.871094 521.53125 619.871094 L 1209.910156 619.871094 C 1222.089844 619.871094 1231.960938 629.738281 1231.960938 641.921875 L 1231.960938 763.761719 C 1231.960938 775.949219 1222.089844 785.808594 1209.910156 785.808594" fill="inherit"/><path d="M 663.886719 1121.601562 L 622.371094 1121.601562 C 610.183594 1121.601562 600.320312 1111.738281 600.320312 1099.550781 C 600.320312 1087.359375 610.183594 1077.5 622.371094 1077.5 L 663.886719 1077.5 C 676.074219 1077.5 685.9375 1087.359375 685.9375 1099.550781 C 685.9375 1111.738281 676.074219 1121.601562 663.886719 1121.601562" fill="inherit"/><path d="M 745.5 780.679688 L 431.371094 780.679688 C 419.183594 780.679688 409.324219 770.820312 409.324219 758.628906 C 409.324219 746.449219 419.183594 736.578125 431.371094 736.578125 L 745.5 736.578125 C 757.6875 736.578125 767.550781 746.449219 767.550781 758.628906 C 767.550781 770.820312 757.6875 780.679688 745.5 780.679688" fill="inherit"/><path d="M 695.089844 898.808594 L 492.140625 898.808594 C 479.953125 898.808594 470.089844 888.949219 470.089844 876.761719 C 470.089844 864.578125 479.953125 854.71875 492.140625 854.71875 L 695.089844 854.71875 C 707.277344 854.71875 717.140625 864.578125 717.140625 876.761719 C 717.140625 888.949219 707.277344 898.808594 695.089844 898.808594" fill="inherit"/><path d="M 808.828125 1022.050781 L 384.839844 1022.050781 C 372.652344 1022.050781 362.789062 1012.191406 362.789062 1000 C 362.789062 987.808594 372.652344 977.949219 384.839844 977.949219 L 808.828125 977.949219 C 821.015625 977.949219 830.878906 987.808594 830.878906 1000 C 830.878906 1012.191406 821.015625 1022.050781 808.828125 1022.050781" fill="inherit"/><path d="M 622.371094 1200.019531 L 471.445312 1200.019531 C 459.257812 1200.019531 449.394531 1190.160156 449.394531 1177.96875 C 449.394531 1165.78125 459.257812 1155.921875 471.445312 1155.921875 L 622.371094 1155.921875 C 634.558594 1155.921875 644.421875 1165.78125 644.421875 1177.96875 C 644.421875 1190.160156 634.558594 1200.019531 622.371094 1200.019531" fill="inherit"/></g></svg>