<?xml version="1.0" encoding="UTF-8" standalone="no"?><svg xmlns="http://www.w3.org/2000/svg" xmlns:xlink="http://www.w3.org/1999/xlink" fill="#ffffff" height="62" preserveAspectRatio="xMidYMid meet" version="1" viewBox="0.0 0.0 62.0 62.0" width="62" zoomAndPan="magnify"><g id="change1_1"><path d="M 31.78125 22.96875 Z M 48.441406 40.90625 C 47.691406 40.90625 46.9375 40.660156 46.304688 40.167969 L 40.578125 35.730469 C 40.140625 35.390625 40.0625 34.765625 40.402344 34.328125 C 40.738281 33.890625 41.367188 33.8125 41.800781 34.148438 L 47.527344 38.585938 C 48.128906 39.054688 49 38.992188 49.523438 38.457031 C 49.863281 38.105469 50.011719 37.699219 49.984375 37.269531 C 49.960938 36.84375 49.753906 36.449219 49.414062 36.179688 L 48.054688 35.117188 C 45.886719 33.410156 41.722656 30.148438 38.054688 27.386719 C 38.027344 27.367188 37.996094 27.347656 37.96875 27.328125 C 33.542969 23.992188 32.25 23.191406 31.871094 23.007812 C 31.007812 23.109375 29.871094 24.183594 28.859375 25.136719 C 27.53125 26.394531 26.15625 27.691406 24.621094 27.691406 C 21.851562 27.691406 20.277344 25.699219 20.210938 25.613281 C 19.914062 25.234375 19.933594 24.699219 20.25 24.335938 C 20.78125 23.738281 21.558594 22.617188 22.308594 21.53125 C 23.789062 19.386719 24.746094 18.050781 25.507812 17.546875 C 26.367188 16.972656 28.453125 16.101562 30.769531 15.546875 C 32.277344 15.183594 33.703125 15 35 15 C 37.308594 15 40.78125 16.371094 43.84375 17.578125 C 45.53125 18.246094 47.441406 19 48 19 L 53.320312 19 C 53.871094 19 54.320312 19.449219 54.320312 20 C 54.320312 20.550781 53.871094 21 53.320312 21 L 48 21 C 47.101562 21 45.632812 20.4375 43.109375 19.441406 C 40.355469 18.351562 36.929688 17 35 17 C 33.875 17 32.574219 17.171875 31.234375 17.492188 C 29.042969 18.015625 27.214844 18.8125 26.613281 19.210938 C 26.113281 19.542969 24.863281 21.347656 23.953125 22.667969 C 23.386719 23.488281 22.839844 24.277344 22.355469 24.914062 C 22.835938 25.277344 23.605469 25.691406 24.621094 25.691406 C 25.359375 25.691406 26.488281 24.625 27.484375 23.683594 C 28.882812 22.363281 30.328125 21 32 21 C 32.457031 21 32.890625 21 39.09375 25.671875 C 39.125 25.691406 39.152344 25.710938 39.179688 25.730469 C 42.882812 28.515625 47.101562 31.820312 49.289062 33.542969 L 50.65625 34.609375 C 51.445312 35.242188 51.921875 36.164062 51.976562 37.144531 C 52.046875 38.125 51.691406 39.101562 50.992188 39.808594 C 50.289062 40.539062 49.367188 40.90625 48.441406 40.90625" fill="inherit"/><path d="M 44.625 44.621094 C 43.847656 44.621094 43.070312 44.367188 42.429688 43.851562 L 36.996094 39.464844 C 36.570312 39.117188 36.5 38.488281 36.847656 38.058594 C 37.195312 37.632812 37.824219 37.5625 38.253906 37.910156 L 43.6875 42.292969 C 44.269531 42.761719 45.109375 42.726562 45.652344 42.222656 L 45.859375 42.027344 C 46.179688 41.726562 46.355469 41.300781 46.335938 40.863281 C 46.3125 40.421875 46.101562 40.019531 45.753906 39.746094 L 45.605469 39.632812 C 45.167969 39.292969 45.085938 38.667969 45.421875 38.230469 C 45.761719 37.789062 46.386719 37.710938 46.824219 38.046875 L 46.976562 38.164062 C 47.792969 38.796875 48.285156 39.746094 48.332031 40.769531 C 48.378906 41.796875 47.976562 42.785156 47.226562 43.488281 L 47.019531 43.679688 C 46.351562 44.304688 45.488281 44.621094 44.625 44.621094" fill="inherit"/><path d="M 39.800781 47.648438 C 38.996094 47.648438 38.1875 47.363281 37.53125 46.800781 L 32.289062 42.324219 C 31.867188 41.964844 31.820312 41.332031 32.175781 40.914062 C 32.535156 40.492188 33.167969 40.445312 33.585938 40.800781 L 38.828125 45.28125 C 39.398438 45.765625 40.21875 45.765625 40.785156 45.273438 L 41.113281 44.988281 C 41.441406 44.707031 41.625 44.296875 41.617188 43.863281 C 41.609375 43.433594 41.414062 43.027344 41.078125 42.757812 C 40.648438 42.410156 40.578125 41.78125 40.925781 41.351562 C 41.273438 40.921875 41.902344 40.851562 42.332031 41.203125 C 43.132812 41.84375 43.597656 42.800781 43.617188 43.832031 C 43.632812 44.855469 43.199219 45.832031 42.421875 46.503906 L 42.09375 46.789062 C 41.429688 47.359375 40.617188 47.648438 39.800781 47.648438" fill="inherit"/><path d="M 35.429688 49.996094 C 34.738281 49.996094 34.042969 49.792969 33.445312 49.386719 L 30.292969 47.214844 C 29.839844 46.902344 29.722656 46.277344 30.035156 45.824219 C 30.347656 45.367188 30.972656 45.253906 31.425781 45.566406 L 34.578125 47.738281 C 35.128906 48.113281 35.871094 48.082031 36.382812 47.660156 C 36.65625 47.433594 36.816406 47.101562 36.820312 46.746094 C 36.820312 46.402344 36.664062 46.070312 36.398438 45.839844 L 36.117188 45.597656 C 35.699219 45.238281 35.652344 44.609375 36.011719 44.191406 C 36.371094 43.769531 37.003906 43.722656 37.417969 44.082031 L 37.699219 44.320312 C 38.410156 44.929688 38.820312 45.820312 38.820312 46.761719 C 38.804688 47.71875 38.382812 48.605469 37.652344 49.203125 C 37.015625 49.730469 36.222656 49.996094 35.429688 49.996094" fill="inherit"/><path d="M 38.582031 27.53125 L 38.570312 27.53125 C 38.015625 27.53125 37.570312 27.082031 37.570312 26.53125 C 37.570312 25.976562 38.015625 25.53125 38.570312 25.53125 C 39.121094 25.53125 39.574219 25.976562 39.574219 26.53125 C 39.574219 27.082031 39.132812 27.53125 38.582031 27.53125" fill="inherit"/><path d="M 13.539062 40.90625 C 12.625 40.90625 11.714844 40.542969 11.039062 39.84375 C 10.308594 39.101562 9.953125 38.125 10.023438 37.132812 C 10.078125 36.160156 10.554688 35.242188 11.335938 34.617188 L 13.074219 33.253906 C 13.261719 33.101562 13.496094 33.011719 13.730469 33.011719 C 14.28125 33.011719 14.730469 33.457031 14.730469 34.011719 C 14.730469 34.347656 14.5625 34.648438 14.300781 34.832031 L 12.578125 36.1875 C 12.246094 36.449219 12.042969 36.84375 12.019531 37.257812 C 11.988281 37.699219 12.136719 38.105469 12.433594 38.410156 C 12.96875 38.960938 13.742188 39.050781 14.335938 38.671875 C 14.726562 38.363281 15.292969 38.390625 15.65625 38.753906 C 16.046875 39.144531 16.046875 39.777344 15.65625 40.167969 C 15.621094 40.203125 15.570312 40.246094 15.523438 40.28125 C 15.503906 40.292969 15.484375 40.308594 15.464844 40.324219 C 14.878906 40.714844 14.207031 40.90625 13.539062 40.90625" fill="inherit"/><path d="M 14.910156 40.488281 C 14.65625 40.488281 14.398438 40.394531 14.203125 40.199219 C 13.8125 39.804688 13.8125 39.171875 14.203125 38.78125 C 14.238281 38.746094 14.289062 38.707031 14.335938 38.671875 L 16.0625 37.3125 C 16.394531 37.050781 16.597656 36.65625 16.621094 36.242188 C 16.652344 35.800781 16.503906 35.394531 16.207031 35.089844 C 15.671875 34.539062 14.890625 34.449219 14.300781 34.832031 C 14.003906 35.0625 13.585938 35.113281 13.226562 34.925781 C 12.734375 34.667969 12.546875 34.066406 12.804688 33.578125 C 12.886719 33.414062 13.019531 33.277344 13.175781 33.179688 L 13.175781 33.175781 C 14.570312 32.246094 16.429688 32.445312 17.597656 33.65625 C 18.328125 34.398438 18.6875 35.375 18.617188 36.367188 C 18.5625 37.339844 18.085938 38.257812 17.304688 38.882812 L 15.566406 40.246094 C 15.550781 40.257812 15.539062 40.269531 15.527344 40.277344 C 15.34375 40.417969 15.128906 40.488281 14.910156 40.488281" fill="inherit"/><path d="M 14 21 L 8.679688 21 C 8.125 21 7.679688 20.550781 7.679688 20 C 7.679688 19.449219 8.125 19 8.679688 19 L 14 19 C 14.558594 19 16.46875 18.246094 18.15625 17.578125 C 21.21875 16.371094 24.691406 15 27 15 C 28.296875 15 29.722656 15.183594 31.234375 15.546875 C 31.769531 15.675781 32.101562 16.21875 31.972656 16.753906 C 31.84375 17.289062 31.296875 17.621094 30.765625 17.492188 C 29.425781 17.171875 28.125 17 27 17 C 25.070312 17 21.644531 18.351562 18.890625 19.441406 C 16.367188 20.4375 14.898438 21 14 21" fill="inherit"/><path d="M 20.824219 40.320312 Z M 17.371094 44.617188 C 16.503906 44.617188 15.644531 44.300781 14.976562 43.679688 L 14.769531 43.484375 C 14.019531 42.789062 13.613281 41.792969 13.671875 40.765625 C 13.714844 39.878906 14.085938 39.042969 14.722656 38.425781 L 15.136719 38.074219 C 15.5625 37.71875 16.195312 37.777344 16.546875 38.199219 C 16.902344 38.621094 16.84375 39.253906 16.421875 39.605469 L 16.0625 39.90625 C 15.847656 40.121094 15.6875 40.480469 15.667969 40.867188 C 15.644531 41.308594 15.816406 41.726562 16.140625 42.027344 L 16.347656 42.226562 C 16.886719 42.726562 17.730469 42.757812 18.3125 42.289062 L 20.660156 40.394531 C 20.667969 40.386719 20.699219 40.363281 20.730469 40.34375 C 20.742188 40.332031 20.757812 40.320312 20.769531 40.308594 L 20.917969 40.199219 C 21.25 39.84375 21.796875 39.773438 22.210938 40.050781 C 22.667969 40.359375 22.789062 40.984375 22.476562 41.441406 C 22.429688 41.511719 22.324219 41.628906 22.257812 41.683594 C 22.238281 41.699219 22.191406 41.746094 22.167969 41.761719 L 22.011719 41.878906 C 21.984375 41.898438 21.960938 41.917969 21.9375 41.933594 L 19.570312 43.847656 C 18.925781 44.363281 18.148438 44.617188 17.371094 44.617188" fill="inherit"/><path d="M 20.824219 40.316406 C 20.824219 40.320312 20.824219 40.320312 20.824219 40.320312 C 20.824219 40.320312 20.824219 40.320312 20.824219 40.316406 Z M 21.328125 42.128906 C 21.003906 42.128906 20.691406 41.984375 20.5 41.710938 C 20.191406 41.261719 20.265625 40.667969 20.710938 40.351562 C 20.71875 40.347656 20.796875 40.292969 20.808594 40.285156 L 20.867188 40.246094 C 20.878906 40.234375 20.894531 40.222656 20.910156 40.210938 C 20.921875 40.195312 20.9375 40.179688 20.949219 40.164062 C 21.226562 39.898438 21.394531 39.527344 21.410156 39.152344 C 21.433594 38.707031 21.265625 38.289062 20.933594 37.976562 L 20.730469 37.785156 C 20.195312 37.28125 19.34375 37.253906 18.765625 37.71875 L 16.0625 39.90625 C 15.640625 40.261719 15.007812 40.207031 14.652344 39.78125 C 14.296875 39.359375 14.355469 38.726562 14.777344 38.371094 L 15.136719 38.074219 L 17.511719 36.160156 C 18.863281 35.074219 20.839844 35.148438 22.101562 36.332031 L 22.308594 36.523438 C 23.0625 37.234375 23.464844 38.230469 23.410156 39.253906 C 23.367188 40.132812 22.992188 40.964844 22.351562 41.589844 C 22.320312 41.628906 22.285156 41.660156 22.257812 41.683594 C 22.242188 41.699219 22.191406 41.742188 22.171875 41.757812 L 21.914062 41.953125 C 21.734375 42.070312 21.53125 42.128906 21.328125 42.128906" fill="inherit"/><path d="M 22.195312 47.644531 C 21.382812 47.644531 20.570312 47.355469 19.90625 46.785156 L 19.585938 46.515625 C 18.800781 45.832031 18.367188 44.855469 18.378906 43.835938 C 18.410156 42.792969 18.878906 41.839844 19.671875 41.203125 C 20.105469 40.851562 20.730469 40.921875 21.078125 41.351562 C 21.425781 41.78125 21.355469 42.414062 20.925781 42.757812 C 20.59375 43.03125 20.390625 43.4375 20.378906 43.878906 C 20.375 44.296875 20.558594 44.710938 20.886719 44.996094 L 21.207031 45.265625 C 21.78125 45.761719 22.601562 45.761719 23.171875 45.277344 L 25.628906 43.179688 C 25.679688 43.136719 25.730469 43.09375 25.773438 43.050781 C 26.164062 42.660156 26.796875 42.660156 27.1875 43.050781 C 27.578125 43.445312 27.578125 44.078125 27.1875 44.46875 C 27.109375 44.546875 27.019531 44.625 26.925781 44.703125 L 24.46875 46.800781 C 23.808594 47.363281 23.003906 47.644531 22.195312 47.644531" fill="inherit"/><path d="M 26.28125 44.941406 C 25.996094 44.941406 25.714844 44.820312 25.515625 44.585938 C 25.160156 44.164062 25.210938 43.535156 25.632812 43.175781 C 25.679688 43.136719 25.730469 43.09375 25.773438 43.050781 C 26.03125 42.792969 26.183594 42.429688 26.191406 42.054688 C 26.195312 41.628906 26.007812 41.214844 25.691406 40.941406 L 25.351562 40.644531 C 24.800781 40.164062 23.960938 40.164062 23.398438 40.640625 L 20.949219 42.738281 C 20.53125 43.097656 19.898438 43.050781 19.539062 42.632812 C 19.179688 42.210938 19.230469 41.582031 19.648438 41.222656 L 22.097656 39.121094 C 23.410156 38.003906 25.375 38.011719 26.667969 39.136719 L 27 39.425781 C 27.769531 40.085938 28.207031 41.054688 28.191406 42.085938 C 28.175781 42.976562 27.808594 43.84375 27.1875 44.46875 C 27.109375 44.546875 27.019531 44.625 26.925781 44.703125 C 26.738281 44.859375 26.507812 44.941406 26.28125 44.941406" fill="inherit"/><path d="M 26.570312 49.996094 C 25.773438 49.996094 24.980469 49.726562 24.34375 49.199219 C 23.617188 48.605469 23.195312 47.722656 23.179688 46.773438 C 23.179688 45.820312 23.589844 44.929688 24.300781 44.320312 L 24.582031 44.082031 C 25 43.722656 25.632812 43.769531 25.988281 44.191406 C 26.347656 44.609375 26.300781 45.238281 25.882812 45.597656 L 25.601562 45.839844 C 25.332031 46.070312 25.179688 46.40625 25.179688 46.761719 C 25.183594 47.101562 25.34375 47.433594 25.613281 47.65625 C 26.132812 48.082031 26.875 48.109375 27.425781 47.734375 L 29.652344 46.199219 C 30.101562 45.882812 30.726562 45.996094 31.042969 46.453125 C 31.355469 46.90625 31.242188 47.527344 30.789062 47.84375 L 28.558594 49.382812 C 27.960938 49.792969 27.261719 49.996094 26.570312 49.996094" fill="inherit"/><path d="M 30.21875 48.019531 C 29.9375 48.019531 29.65625 47.902344 29.460938 47.667969 C 29.101562 47.25 29.148438 46.617188 29.570312 46.261719 L 29.847656 46.019531 C 30.117188 45.789062 30.269531 45.453125 30.269531 45.089844 C 30.265625 44.753906 30.105469 44.425781 29.835938 44.203125 C 29.320312 43.777344 28.578125 43.746094 28.027344 44.125 L 25.796875 45.664062 C 25.34375 45.972656 24.71875 45.859375 24.40625 45.40625 C 24.09375 44.953125 24.207031 44.332031 24.660156 44.019531 L 26.890625 42.476562 C 28.179688 41.597656 29.910156 41.671875 31.105469 42.65625 C 31.832031 43.253906 32.253906 44.132812 32.269531 45.074219 C 32.269531 46.035156 31.859375 46.929688 31.152344 47.539062 L 30.871094 47.777344 C 30.679688 47.941406 30.449219 48.019531 30.21875 48.019531" fill="inherit"/><path d="M 13.328125 35.332031 C 13.117188 35.332031 12.902344 35.261719 12.71875 35.121094 C 12.121094 34.664062 11.007812 34.171875 7.273438 34.039062 C 6.722656 34.019531 6.289062 33.554688 6.3125 33.003906 C 6.332031 32.453125 6.8125 32.011719 7.34375 32.039062 C 10.808594 32.164062 12.71875 32.597656 13.941406 33.539062 C 14.378906 33.875 14.460938 34.503906 14.121094 34.941406 C 13.925781 35.195312 13.628906 35.332031 13.328125 35.332031" fill="inherit"/><path d="M 48.671875 35.332031 C 48.371094 35.332031 48.074219 35.195312 47.878906 34.941406 C 47.539062 34.503906 47.621094 33.875 48.058594 33.539062 C 49.28125 32.597656 51.191406 32.164062 54.65625 32.039062 C 55.199219 32.015625 55.667969 32.453125 55.691406 33.003906 C 55.710938 33.554688 55.277344 34.019531 54.726562 34.039062 C 50.992188 34.171875 49.878906 34.664062 49.28125 35.121094 C 49.097656 35.261719 48.882812 35.332031 48.671875 35.332031" fill="inherit"/><path d="M 61 37 L 55 37 C 54.488281 37 54.058594 36.613281 54.007812 36.105469 L 52.007812 17.105469 C 51.976562 16.824219 52.066406 16.542969 52.257812 16.332031 C 52.445312 16.121094 52.71875 16 53 16 L 61 16 C 61.550781 16 62 16.449219 62 17 C 62 17.550781 61.550781 18 61 18 L 54.109375 18 L 55.902344 35 L 61 35 C 61.550781 35 62 35.449219 62 36 C 62 36.550781 61.550781 37 61 37" fill="inherit"/><path d="M 7 37 L 1 37 C 0.449219 37 0 36.550781 0 36 C 0 35.449219 0.449219 35 1 35 L 6.101562 35 L 7.890625 18 L 1 18 C 0.449219 18 0 17.550781 0 17 C 0 16.449219 0.449219 16 1 16 L 9 16 C 9.28125 16 9.554688 16.121094 9.742188 16.332031 C 9.933594 16.542969 10.023438 16.824219 9.992188 17.105469 L 7.992188 36.105469 C 7.941406 36.613281 7.511719 37 7 37" fill="inherit"/><path d="M 31 6 C 30.449219 6 30 5.550781 30 5 L 30 1 C 30 0.449219 30.449219 0 31 0 C 31.550781 0 32 0.449219 32 1 L 32 5 C 32 5.550781 31.550781 6 31 6" fill="inherit"/><path d="M 31 62 C 30.449219 62 30 61.550781 30 61 L 30 57 C 30 56.449219 30.449219 56 31 56 C 31.550781 56 32 56.449219 32 57 L 32 61 C 32 61.550781 31.550781 62 31 62" fill="inherit"/><path d="M 44 9.484375 C 43.828125 9.484375 43.65625 9.441406 43.5 9.347656 C 43.023438 9.074219 42.855469 8.460938 43.132812 7.984375 L 45.132812 4.519531 C 45.410156 4.039062 46.023438 3.875 46.5 4.152344 C 46.976562 4.429688 47.144531 5.039062 46.867188 5.519531 L 44.867188 8.984375 C 44.679688 9.304688 44.34375 9.484375 44 9.484375" fill="inherit"/><path d="M 16 57.980469 C 15.828125 57.980469 15.65625 57.9375 15.5 57.847656 C 15.023438 57.570312 14.855469 56.960938 15.132812 56.480469 L 17.132812 53.015625 C 17.410156 52.539062 18.023438 52.375 18.5 52.648438 C 18.976562 52.925781 19.144531 53.539062 18.867188 54.015625 L 16.867188 57.480469 C 16.679688 57.800781 16.34375 57.980469 16 57.980469" fill="inherit"/><path d="M 46 57.980469 C 45.65625 57.980469 45.320312 57.800781 45.132812 57.480469 L 43.132812 54.015625 C 42.855469 53.539062 43.023438 52.925781 43.5 52.648438 C 43.976562 52.375 44.589844 52.539062 44.867188 53.015625 L 46.867188 56.480469 C 47.144531 56.960938 46.976562 57.570312 46.5 57.847656 C 46.34375 57.9375 46.171875 57.980469 46 57.980469" fill="inherit"/><path d="M 18 9.484375 C 17.65625 9.484375 17.320312 9.304688 17.132812 8.984375 L 15.132812 5.519531 C 14.855469 5.039062 15.023438 4.429688 15.5 4.152344 C 15.976562 3.875 16.589844 4.039062 16.867188 4.519531 L 18.867188 7.984375 C 19.144531 8.460938 18.976562 9.074219 18.5 9.347656 C 18.34375 9.441406 18.171875 9.484375 18 9.484375" fill="inherit"/></g></svg>